<svg width="24" height="24" viewBox="0 0 24 24" fill="none" xmlns="http://www.w3.org/2000/svg">
<path d="M23 9.66675H1C0.448 9.66675 0 9.21875 0 8.66675C0 8.11475 0.448 7.66675 1 7.66675H23C23.552 7.66675 24 8.11475 24 8.66675C24 9.21875 23.552 9.66675 23 9.66675ZM23 2H1C0.448 2 0 1.552 0 1C0 0.448 0.448 0 1 0H23C23.552 0 24 0.448 24 1C24 1.552 23.552 2 23 2ZM23 17.3333H1C0.448 17.3333 0 16.8853 0 16.3333C0 15.7812 0.448 15.3333 1 15.3333H23C23.552 15.3333 24 15.7812 24 16.3333C24 16.8853 23.552 17.3333 23 17.3333Z" fill="white"/>
</svg>
