<svg width="273" height="38" viewBox="0 0 273 38" fill="none" xmlns="http://www.w3.org/2000/svg">
<path d="M27.5534 13.9394C26.3826 10.9194 24.2009 8.39886 21.38 6.80714C18.5591 5.21542 15.2736 4.65104 12.0832 5.21018C8.89288 5.76931 5.9951 7.41736 3.88364 9.87351C1.77218 12.3297 0.577673 15.4419 0.503656 18.6801C0.429639 21.9182 1.48069 25.0818 3.47772 27.6319C5.47475 30.1819 8.2942 31.9607 11.4557 32.665C14.6171 33.3693 17.925 32.9557 20.8157 31.4945C23.7063 30.0333 26.0009 27.6151 27.3085 24.6517L14.5 19L27.5534 13.9394Z" fill="#D3F85A"/>
<circle cx="6.5" cy="19" r="2" fill="#090F1D"/>
<path d="M58.708 26.144C58.132 26.592 57.0227 27.0933 55.38 27.648C53.7587 28.2027 51.9773 28.48 50.036 28.48C46.3453 28.48 43.316 27.3387 40.948 25.056C38.6013 22.7733 37.428 19.8933 37.428 16.416C37.428 12.9387 38.6653 10.016 41.14 7.648C43.6147 5.28 46.7293 4.096 50.484 4.096C53.1293 4.096 55.828 4.55467 58.58 5.472L59.22 11.008L58.932 11.104C57.2467 8.75733 55.7853 7.11467 54.548 6.176C53.3107 5.23733 51.86 4.768 50.196 4.768C48.8307 4.768 47.636 5.056 46.612 5.632C45.6093 6.18667 44.8093 6.99733 44.212 8.064C43.6147 9.13067 43.1773 10.3573 42.9 11.744C42.6227 13.1093 42.484 14.6667 42.484 16.416C42.484 19.936 43.124 22.72 44.404 24.768C45.684 26.7947 47.572 27.808 50.068 27.808C52.0307 27.808 53.6733 27.168 54.996 25.888C56.3187 24.608 57.6733 22.6347 59.06 19.968L59.348 20.064L58.708 26.144ZM62.2853 28V27.936C62.7759 26.336 63.0213 24.3733 63.0213 22.048V18.336C63.0213 16.5013 62.5199 14.976 61.5173 13.76V13.696L66.9893 11.936V15.84H67.0213C67.1279 15.7333 67.3946 15.4347 67.8213 14.944C68.2479 14.4533 68.5786 14.0907 68.8133 13.856C69.0693 13.6213 69.3999 13.3333 69.8053 12.992C70.2319 12.6507 70.6586 12.416 71.0853 12.288C71.5119 12.1387 71.9493 12.0747 72.3973 12.096L72.1093 16.672H71.9493C71.6293 16.3093 71.1386 15.9893 70.4773 15.712C69.8373 15.4347 69.3146 15.296 68.9093 15.296C68.3546 15.296 67.7573 15.68 67.1173 16.448V22.048C67.1173 24.6507 67.3626 26.6133 67.8533 27.936V28H62.2853ZM81.006 12.672C80.0033 12.672 79.214 13.1733 78.638 14.176C78.0833 15.1787 77.7633 16.4587 77.678 18.016L83.566 17.888V17.152C83.566 14.1653 82.7127 12.672 81.006 12.672ZM87.63 23.584C87.182 25.056 86.382 26.24 85.23 27.136C84.0993 28.032 82.6913 28.48 81.006 28.48C78.7873 28.48 76.9847 27.7333 75.598 26.24C74.2327 24.7253 73.55 22.8373 73.55 20.576C73.55 18.1013 74.3073 16.0747 75.822 14.496C77.3367 12.896 79.118 12.096 81.166 12.096C83.1073 12.096 84.6753 12.7787 85.87 14.144C87.086 15.488 87.6727 16.9707 87.63 18.592L77.678 18.56V18.656C77.678 20.96 78.158 22.656 79.118 23.744C80.0993 24.8107 81.4327 25.344 83.118 25.344C84.9527 25.344 86.3927 24.7253 87.438 23.488L87.63 23.584ZM95.1895 26.272C95.9788 26.272 96.6615 26.0587 97.2375 25.632V20.608C94.3788 21.3333 92.9495 22.5387 92.9495 24.224C92.9495 24.864 93.1415 25.3653 93.5255 25.728C93.9308 26.0907 94.4855 26.272 95.1895 26.272ZM100.342 28.416C99.4882 28.416 98.8055 28.2133 98.2935 27.808C97.7815 27.4027 97.4615 26.8587 97.3335 26.176C96.1175 27.712 94.5922 28.48 92.7575 28.48C91.7335 28.48 90.8908 28.2347 90.2295 27.744C89.5895 27.2533 89.2695 26.5173 89.2695 25.536C89.2695 22.8907 91.9255 21.056 97.2375 20.032V17.216C97.2375 16.2773 97.0135 15.584 96.5655 15.136C96.1175 14.688 95.3388 14.464 94.2295 14.464C92.6722 14.464 91.2748 14.8587 90.0375 15.648L89.8775 15.424C91.6268 13.2053 93.9308 12.096 96.7895 12.096C98.3682 12.096 99.5202 12.4587 100.246 13.184C100.971 13.9093 101.334 14.88 101.334 16.096V24.8C101.334 25.7387 101.771 26.208 102.646 26.208C103.136 26.208 103.606 26.0373 104.054 25.696L104.118 25.792C103.264 27.5413 102.006 28.416 100.342 28.416ZM110.3 28.48C107.655 28.48 106.332 27.104 106.332 24.352V13.216H104.572V12.992L110.108 8.928H110.428V12.576H114.428V13.216H110.428V24.224C110.428 25.8667 111.186 26.688 112.7 26.688C113.042 26.688 113.372 26.6453 113.692 26.56C114.012 26.4747 114.247 26.4 114.396 26.336C114.546 26.2507 114.642 26.1867 114.684 26.144L114.78 26.24C113.82 27.7333 112.327 28.48 110.3 28.48ZM121.46 6.976C121.46 7.616 121.226 8.16 120.756 8.608C120.308 9.056 119.764 9.28 119.124 9.28C118.484 9.28 117.94 9.056 117.492 8.608C117.044 8.16 116.82 7.616 116.82 6.976C116.82 6.35733 117.044 5.824 117.492 5.376C117.94 4.90667 118.484 4.672 119.124 4.672C119.764 4.672 120.308 4.90667 120.756 5.376C121.226 5.824 121.46 6.35733 121.46 6.976ZM116.628 27.936C117.14 26.0373 117.396 24.0747 117.396 22.048V18.432C117.396 16.5547 116.884 15.04 115.86 13.888V13.696L121.46 11.936V22.048C121.46 24.6293 121.706 26.592 122.196 27.936V28H116.628V27.936ZM125.395 16.864C124.627 14.9013 123.869 13.4933 123.123 12.64V12.576H129.747V12.64C129.491 13.0453 129.341 13.5893 129.299 14.272C129.277 14.9547 129.427 15.776 129.747 16.736L132.147 23.072L134.451 17.344C134.707 16.6613 134.845 15.9893 134.867 15.328C134.888 14.6453 134.835 14.1013 134.707 13.696C134.579 13.2693 134.419 12.9173 134.227 12.64V12.576H137.907V12.64C136.904 13.728 136.029 15.1787 135.283 16.992L130.739 28.288H129.907L125.395 16.864ZM145.319 12.672C144.316 12.672 143.527 13.1733 142.951 14.176C142.396 15.1787 142.076 16.4587 141.991 18.016L147.879 17.888V17.152C147.879 14.1653 147.025 12.672 145.319 12.672ZM151.943 23.584C151.495 25.056 150.695 26.24 149.543 27.136C148.412 28.032 147.004 28.48 145.319 28.48C143.1 28.48 141.297 27.7333 139.911 26.24C138.545 24.7253 137.863 22.8373 137.863 20.576C137.863 18.1013 138.62 16.0747 140.135 14.496C141.649 12.896 143.431 12.096 145.479 12.096C147.42 12.096 148.988 12.7787 150.183 14.144C151.399 15.488 151.985 16.9707 151.943 18.592L141.991 18.56V18.656C141.991 20.96 142.471 22.656 143.431 23.744C144.412 24.8107 145.745 25.344 147.431 25.344C149.265 25.344 150.705 24.7253 151.751 23.488L151.943 23.584Z" fill="#FFFFFD"/>
<path d="M159.502 26.272C160.291 26.272 160.974 26.0587 161.55 25.632V20.608C158.691 21.3333 157.262 22.5387 157.262 24.224C157.262 24.864 157.454 25.3653 157.838 25.728C158.243 26.0907 158.798 26.272 159.502 26.272ZM164.654 28.416C163.801 28.416 163.118 28.2133 162.606 27.808C162.094 27.4027 161.774 26.8587 161.646 26.176C160.43 27.712 158.905 28.48 157.07 28.48C156.046 28.48 155.203 28.2347 154.542 27.744C153.902 27.2533 153.582 26.5173 153.582 25.536C153.582 22.8907 156.238 21.056 161.55 20.032V17.216C161.55 16.2773 161.326 15.584 160.878 15.136C160.43 14.688 159.651 14.464 158.542 14.464C156.985 14.464 155.587 14.8587 154.35 15.648L154.19 15.424C155.939 13.2053 158.243 12.096 161.102 12.096C162.681 12.096 163.833 12.4587 164.558 13.184C165.283 13.9093 165.646 14.88 165.646 16.096V24.8C165.646 25.7387 166.083 26.208 166.958 26.208C167.449 26.208 167.918 26.0373 168.366 25.696L168.43 25.792C167.577 27.5413 166.318 28.416 164.654 28.416ZM169.66 28V27.936C170.151 26.336 170.396 24.3733 170.396 22.048V18.336C170.396 16.5013 169.895 14.976 168.892 13.76V13.696L174.364 11.936V15.84H174.396C174.503 15.7333 174.77 15.4347 175.196 14.944C175.623 14.4533 175.954 14.0907 176.188 13.856C176.444 13.6213 176.775 13.3333 177.18 12.992C177.607 12.6507 178.034 12.416 178.46 12.288C178.887 12.1387 179.324 12.0747 179.772 12.096L179.484 16.672H179.324C179.004 16.3093 178.514 15.9893 177.852 15.712C177.212 15.4347 176.69 15.296 176.284 15.296C175.73 15.296 175.132 15.68 174.492 16.448V22.048C174.492 24.6507 174.738 26.6133 175.228 27.936V28H169.66ZM186.738 28.48C184.092 28.48 182.77 27.104 182.77 24.352V13.216H181.01V12.992L186.546 8.928H186.866V12.576H190.866V13.216H186.866V24.224C186.866 25.8667 187.623 26.688 189.138 26.688C189.479 26.688 189.81 26.6453 190.13 26.56C190.45 26.4747 190.684 26.4 190.834 26.336C190.983 26.2507 191.079 26.1867 191.122 26.144L191.218 26.24C190.258 27.7333 188.764 28.48 186.738 28.48Z" fill="#D3F85A"/>
</svg>
