<svg width="196" height="38" viewBox="0 0 196 38" fill="none" xmlns="http://www.w3.org/2000/svg">
<path d="M27.0534 13.9394C25.8826 10.9194 23.7009 8.39886 20.88 6.80714C18.0591 5.21542 14.7736 4.65104 11.5832 5.21018C8.39288 5.76931 5.4951 7.41736 3.38364 9.87351C1.27218 12.3297 0.0776728 15.4419 0.00365596 18.6801C-0.0703609 21.9182 0.980689 25.0818 2.97772 27.6319C4.97475 30.1819 7.7942 31.9607 10.9557 32.665C14.1171 33.3693 17.425 32.9557 20.3157 31.4945C23.2063 30.0333 25.5009 27.6151 26.8085 24.6517L14 19L27.0534 13.9394Z" fill="#D3F85A"/>
<circle cx="6" cy="19" r="2" fill="#090F1D"/>
<path d="M58.208 26.144C57.632 26.592 56.5227 27.0933 54.88 27.648C53.2587 28.2027 51.4773 28.48 49.536 28.48C45.8453 28.48 42.816 27.3387 40.448 25.056C38.1013 22.7733 36.928 19.8933 36.928 16.416C36.928 12.9387 38.1653 10.016 40.64 7.648C43.1147 5.28 46.2293 4.096 49.984 4.096C52.6293 4.096 55.328 4.55467 58.08 5.472L58.72 11.008L58.432 11.104C56.7467 8.75733 55.2853 7.11467 54.048 6.176C52.8107 5.23733 51.36 4.768 49.696 4.768C48.3307 4.768 47.136 5.056 46.112 5.632C45.1093 6.18667 44.3093 6.99733 43.712 8.064C43.1147 9.13067 42.6773 10.3573 42.4 11.744C42.1227 13.1093 41.984 14.6667 41.984 16.416C41.984 19.936 42.624 22.72 43.904 24.768C45.184 26.7947 47.072 27.808 49.568 27.808C51.5307 27.808 53.1733 27.168 54.496 25.888C55.8187 24.608 57.1733 22.6347 58.56 19.968L58.848 20.064L58.208 26.144ZM61.7853 28V27.936C62.2759 26.336 62.5213 24.3733 62.5213 22.048V18.336C62.5213 16.5013 62.0199 14.976 61.0173 13.76V13.696L66.4893 11.936V15.84H66.5213C66.6279 15.7333 66.8946 15.4347 67.3213 14.944C67.7479 14.4533 68.0786 14.0907 68.3133 13.856C68.5693 13.6213 68.8999 13.3333 69.3053 12.992C69.7319 12.6507 70.1586 12.416 70.5853 12.288C71.0119 12.1387 71.4493 12.0747 71.8973 12.096L71.6093 16.672H71.4493C71.1293 16.3093 70.6386 15.9893 69.9773 15.712C69.3373 15.4347 68.8146 15.296 68.4093 15.296C67.8546 15.296 67.2573 15.68 66.6173 16.448V22.048C66.6173 24.6507 66.8626 26.6133 67.3533 27.936V28H61.7853ZM80.506 12.672C79.5033 12.672 78.714 13.1733 78.138 14.176C77.5833 15.1787 77.2633 16.4587 77.178 18.016L83.066 17.888V17.152C83.066 14.1653 82.2127 12.672 80.506 12.672ZM87.13 23.584C86.682 25.056 85.882 26.24 84.73 27.136C83.5993 28.032 82.1913 28.48 80.506 28.48C78.2873 28.48 76.4847 27.7333 75.098 26.24C73.7327 24.7253 73.05 22.8373 73.05 20.576C73.05 18.1013 73.8073 16.0747 75.322 14.496C76.8367 12.896 78.618 12.096 80.666 12.096C82.6073 12.096 84.1753 12.7787 85.37 14.144C86.586 15.488 87.1727 16.9707 87.13 18.592L77.178 18.56V18.656C77.178 20.96 77.658 22.656 78.618 23.744C79.5993 24.8107 80.9327 25.344 82.618 25.344C84.4527 25.344 85.8927 24.7253 86.938 23.488L87.13 23.584ZM94.6895 26.272C95.4788 26.272 96.1615 26.0587 96.7375 25.632V20.608C93.8788 21.3333 92.4495 22.5387 92.4495 24.224C92.4495 24.864 92.6415 25.3653 93.0255 25.728C93.4308 26.0907 93.9855 26.272 94.6895 26.272ZM99.8415 28.416C98.9882 28.416 98.3055 28.2133 97.7935 27.808C97.2815 27.4027 96.9615 26.8587 96.8335 26.176C95.6175 27.712 94.0922 28.48 92.2575 28.48C91.2335 28.48 90.3908 28.2347 89.7295 27.744C89.0895 27.2533 88.7695 26.5173 88.7695 25.536C88.7695 22.8907 91.4255 21.056 96.7375 20.032V17.216C96.7375 16.2773 96.5135 15.584 96.0655 15.136C95.6175 14.688 94.8388 14.464 93.7295 14.464C92.1722 14.464 90.7748 14.8587 89.5375 15.648L89.3775 15.424C91.1268 13.2053 93.4308 12.096 96.2895 12.096C97.8682 12.096 99.0202 12.4587 99.7455 13.184C100.471 13.9093 100.834 14.88 100.834 16.096V24.8C100.834 25.7387 101.271 26.208 102.146 26.208C102.636 26.208 103.106 26.0373 103.554 25.696L103.618 25.792C102.764 27.5413 101.506 28.416 99.8415 28.416ZM109.8 28.48C107.155 28.48 105.832 27.104 105.832 24.352V13.216H104.072V12.992L109.608 8.928H109.928V12.576H113.928V13.216H109.928V24.224C109.928 25.8667 110.686 26.688 112.2 26.688C112.542 26.688 112.872 26.6453 113.192 26.56C113.512 26.4747 113.747 26.4 113.896 26.336C114.046 26.2507 114.142 26.1867 114.184 26.144L114.28 26.24C113.32 27.7333 111.827 28.48 109.8 28.48ZM120.96 6.976C120.96 7.616 120.726 8.16 120.256 8.608C119.808 9.056 119.264 9.28 118.624 9.28C117.984 9.28 117.44 9.056 116.992 8.608C116.544 8.16 116.32 7.616 116.32 6.976C116.32 6.35733 116.544 5.824 116.992 5.376C117.44 4.90667 117.984 4.672 118.624 4.672C119.264 4.672 119.808 4.90667 120.256 5.376C120.726 5.824 120.96 6.35733 120.96 6.976ZM116.128 27.936C116.64 26.0373 116.896 24.0747 116.896 22.048V18.432C116.896 16.5547 116.384 15.04 115.36 13.888V13.696L120.96 11.936V22.048C120.96 24.6293 121.206 26.592 121.696 27.936V28H116.128V27.936ZM124.895 16.864C124.127 14.9013 123.369 13.4933 122.623 12.64V12.576H129.247V12.64C128.991 13.0453 128.841 13.5893 128.799 14.272C128.777 14.9547 128.927 15.776 129.247 16.736L131.647 23.072L133.951 17.344C134.207 16.6613 134.345 15.9893 134.367 15.328C134.388 14.6453 134.335 14.1013 134.207 13.696C134.079 13.2693 133.919 12.9173 133.727 12.64V12.576H137.407V12.64C136.404 13.728 135.529 15.1787 134.783 16.992L130.239 28.288H129.407L124.895 16.864ZM144.819 12.672C143.816 12.672 143.027 13.1733 142.451 14.176C141.896 15.1787 141.576 16.4587 141.491 18.016L147.379 17.888V17.152C147.379 14.1653 146.525 12.672 144.819 12.672ZM151.443 23.584C150.995 25.056 150.195 26.24 149.043 27.136C147.912 28.032 146.504 28.48 144.819 28.48C142.6 28.48 140.797 27.7333 139.411 26.24C138.045 24.7253 137.363 22.8373 137.363 20.576C137.363 18.1013 138.12 16.0747 139.635 14.496C141.149 12.896 142.931 12.096 144.979 12.096C146.92 12.096 148.488 12.7787 149.683 14.144C150.899 15.488 151.485 16.9707 151.443 18.592L141.491 18.56V18.656C141.491 20.96 141.971 22.656 142.931 23.744C143.912 24.8107 145.245 25.344 146.931 25.344C148.765 25.344 150.205 24.7253 151.251 23.488L151.443 23.584Z" fill="white"/>
<path d="M159.002 26.272C159.791 26.272 160.474 26.0587 161.05 25.632V20.608C158.191 21.3333 156.762 22.5387 156.762 24.224C156.762 24.864 156.954 25.3653 157.338 25.728C157.743 26.0907 158.298 26.272 159.002 26.272ZM164.154 28.416C163.301 28.416 162.618 28.2133 162.106 27.808C161.594 27.4027 161.274 26.8587 161.146 26.176C159.93 27.712 158.405 28.48 156.57 28.48C155.546 28.48 154.703 28.2347 154.042 27.744C153.402 27.2533 153.082 26.5173 153.082 25.536C153.082 22.8907 155.738 21.056 161.05 20.032V17.216C161.05 16.2773 160.826 15.584 160.378 15.136C159.93 14.688 159.151 14.464 158.042 14.464C156.485 14.464 155.087 14.8587 153.85 15.648L153.69 15.424C155.439 13.2053 157.743 12.096 160.602 12.096C162.181 12.096 163.333 12.4587 164.058 13.184C164.783 13.9093 165.146 14.88 165.146 16.096V24.8C165.146 25.7387 165.583 26.208 166.458 26.208C166.949 26.208 167.418 26.0373 167.866 25.696L167.93 25.792C167.077 27.5413 165.818 28.416 164.154 28.416ZM169.16 28V27.936C169.651 26.336 169.896 24.3733 169.896 22.048V18.336C169.896 16.5013 169.395 14.976 168.392 13.76V13.696L173.864 11.936V15.84H173.896C174.003 15.7333 174.27 15.4347 174.696 14.944C175.123 14.4533 175.454 14.0907 175.688 13.856C175.944 13.6213 176.275 13.3333 176.68 12.992C177.107 12.6507 177.534 12.416 177.96 12.288C178.387 12.1387 178.824 12.0747 179.272 12.096L178.984 16.672H178.824C178.504 16.3093 178.014 15.9893 177.352 15.712C176.712 15.4347 176.19 15.296 175.784 15.296C175.23 15.296 174.632 15.68 173.992 16.448V22.048C173.992 24.6507 174.238 26.6133 174.728 27.936V28H169.16ZM186.238 28.48C183.592 28.48 182.27 27.104 182.27 24.352V13.216H180.51V12.992L186.046 8.928H186.366V12.576H190.366V13.216H186.366V24.224C186.366 25.8667 187.123 26.688 188.638 26.688C188.979 26.688 189.31 26.6453 189.63 26.56C189.95 26.4747 190.184 26.4 190.334 26.336C190.483 26.2507 190.579 26.1867 190.622 26.144L190.718 26.24C189.758 27.7333 188.264 28.48 186.238 28.48Z" fill="#D3F85A"/>
</svg>
